<?xml version="1.0" standalone="no"?>
<!DOCTYPE svg PUBLIC "-//W3C//DTD SVG 20010904//EN"
 "http://www.w3.org/TR/2001/REC-SVG-20010904/DTD/svg10.dtd">
<svg version="1.0" xmlns="http://www.w3.org/2000/svg"
 width="2000.000000pt" height="1333.000000pt" viewBox="0 0 2000.000000 1333.000000"
 preserveAspectRatio="xMidYMid meet">

<g transform="translate(0.000000,1333.000000) scale(0.100000,-0.100000)"
fill="#000000" stroke="none">
<path d="M10060 11914 c-277 -20 -562 -59 -770 -105 -315 -71 -636 -175 -926
-302 -134 -58 -418 -203 -454 -232 -8 -6 -40 -24 -70 -40 -58 -29 -160 -95
-148 -95 4 0 31 11 60 24 29 13 65 26 80 30 15 3 50 26 78 51 28 25 55 45 61
45 6 0 25 11 42 24 18 14 68 34 112 47 68 18 169 50 401 125 22 7 124 18 225
25 223 14 838 -2 984 -26 59 -10 162 -15 300 -15 365 -1 618 -31 823 -99 51
-17 110 -31 131 -31 45 0 187 -29 286 -58 39 -11 88 -24 110 -28 22 -4 95 -29
162 -55 67 -27 126 -49 130 -49 8 0 135 -49 337 -129 95 -38 189 -89 273 -148
34 -24 97 -62 140 -85 119 -62 244 -144 359 -236 57 -46 125 -92 150 -102 33
-14 99 -73 241 -212 212 -210 294 -301 420 -466 44 -59 99 -127 120 -152 22
-25 50 -61 63 -80 13 -19 42 -58 66 -85 23 -28 63 -89 88 -135 26 -47 58 -98
70 -115 13 -16 32 -48 44 -71 11 -22 28 -46 37 -54 9 -7 33 -48 54 -89 20 -42
52 -97 71 -122 19 -25 61 -83 93 -127 32 -45 80 -100 107 -122 70 -59 85 -95
165 -400 14 -52 38 -124 54 -160 15 -36 31 -81 35 -101 3 -20 18 -59 31 -87
14 -29 25 -60 25 -70 0 -9 16 -71 35 -136 19 -66 35 -131 35 -146 0 -26 39
-111 76 -166 23 -34 49 -91 100 -224 48 -122 64 -283 46 -449 -7 -59 -12 -147
-12 -196 -1 -85 -5 -153 -29 -451 -9 -109 -14 -130 -50 -205 -32 -70 -41 -104
-55 -209 -9 -70 -27 -155 -41 -193 -14 -37 -25 -86 -25 -108 0 -25 -11 -59
-29 -92 -16 -28 -34 -68 -40 -87 -6 -19 -36 -60 -66 -90 -43 -43 -59 -67 -71
-110 -21 -72 -45 -131 -60 -150 -12 -15 -65 -123 -102 -210 -11 -25 -42 -72
-69 -105 -48 -60 -90 -135 -115 -208 -7 -22 -34 -64 -60 -95 -26 -32 -58 -77
-72 -102 -23 -43 -144 -188 -200 -239 -14 -14 -31 -42 -36 -63 -8 -28 -16 -38
-30 -38 -11 0 -20 -4 -20 -10 0 -5 -9 -10 -19 -10 -18 0 -131 -105 -131 -122
0 -4 -24 -25 -52 -46 -29 -22 -69 -55 -89 -75 -20 -19 -54 -45 -75 -56 -67
-37 -102 -66 -222 -188 -65 -65 -147 -141 -182 -168 -92 -70 -141 -116 -151
-143 -5 -13 -13 -21 -18 -18 -13 8 -94 -30 -117 -55 -10 -12 -35 -32 -54 -44
-44 -28 -86 -65 -74 -65 16 0 189 104 374 225 234 153 317 216 523 396 138
121 317 296 317 310 0 6 -5 7 -11 3 -7 -4 -2 11 11 34 13 23 27 39 31 36 4 -2
17 5 28 17 11 12 24 18 29 15 6 -3 41 29 79 72 410 458 750 1056 951 1672 177
544 251 1047 239 1630 -11 518 -83 939 -247 1440 -87 265 -249 634 -360 815
-22 37 -40 69 -40 71 0 13 -240 387 -259 404 -3 3 -21 28 -40 55 -32 46 -157
203 -226 284 -292 341 -650 657 -1015 896 -183 120 -186 121 -360 218 -338
187 -664 317 -1115 443 -163 45 -488 103 -725 129 -138 15 -646 28 -770 19z"/>
<path d="M6416 6298 c-13 -39 -20 -48 -28 -37 -7 10 -8 8 -3 -8 4 -13 0 -35
-9 -50 -8 -16 -25 -51 -38 -80 -15 -34 -25 -48 -31 -40 -5 8 -7 5 -5 -8 2 -11
-5 -28 -16 -39 -11 -11 -14 -21 -8 -25 6 -3 6 -15 1 -28 -10 -27 -21 -31 -13
-5 3 9 -2 5 -10 -10 -9 -15 -17 -38 -18 -52 -1 -13 -5 -23 -8 -21 -3 2 -10 -8
-17 -21 -6 -13 -7 -24 -3 -24 5 0 3 -13 -3 -30 -7 -20 -14 -25 -19 -17 -5 7
-8 2 -8 -15 0 -37 -10 -58 -26 -58 -13 0 -19 -25 -15 -59 2 -7 -2 -10 -7 -7
-6 3 -13 -1 -16 -10 -9 -24 -7 -31 4 -14 8 11 9 7 4 -15 -8 -36 -23 -57 -35
-49 -5 3 -6 -2 -3 -10 3 -9 2 -16 -4 -16 -6 0 -8 -10 -5 -22 4 -19 3 -20 -6
-8 -9 12 -10 10 -9 -11 2 -29 -18 -84 -44 -118 -10 -13 -18 -32 -18 -42 0 -11
-4 -19 -10 -19 -5 0 -10 -11 -10 -25 0 -32 -47 -138 -58 -131 -5 3 -7 -7 -5
-22 3 -23 2 -24 -6 -7 -8 17 -10 15 -10 -13 -1 -19 -5 -31 -11 -27 -5 3 -10 1
-10 -4 0 -6 5 -11 10 -11 6 0 5 -8 -2 -19 -7 -11 -16 -17 -20 -15 -4 3 -8 -7
-8 -23 0 -22 -2 -25 -10 -13 -8 13 -10 13 -10 -1 0 -13 -15 -17 -71 -22 -39
-3 -78 -12 -87 -19 -13 -11 -14 -11 -8 0 6 10 -3 12 -41 8 -54 -7 -323 -31
-513 -47 -69 -5 -161 -14 -205 -19 -44 -6 -168 -17 -275 -26 -107 -9 -228 -19
-269 -22 l-74 -7 74 -64 c41 -36 86 -76 100 -90 14 -14 52 -48 84 -76 101 -86
400 -348 405 -354 3 -3 34 -31 70 -61 36 -30 81 -69 100 -86 107 -98 281 -249
292 -253 7 -2 8 2 3 9 -5 9 -4 11 4 6 6 -4 9 -11 6 -16 -3 -5 0 -21 5 -36 11
-28 5 -58 -71 -384 -11 -47 -27 -113 -35 -147 -8 -35 -21 -91 -29 -125 -8 -35
-30 -133 -49 -218 -19 -85 -59 -262 -89 -392 -29 -131 -52 -238 -51 -238 4 0
314 184 519 308 141 85 180 108 224 131 19 11 21 15 10 23 -10 7 -9 8 6 4 23
-7 109 46 98 59 -5 4 -3 5 4 1 15 -8 115 52 108 65 -4 5 1 6 10 3 19 -8 51 16
35 26 -7 5 -4 9 9 13 13 3 19 1 15 -5 -4 -6 3 -5 15 2 12 6 19 15 16 20 -3 4
3 6 13 3 19 -5 75 33 68 46 -7 10 52 43 64 36 11 -7 53 19 44 28 -11 11 36 27
63 21 23 -4 25 -3 13 6 -12 9 -9 10 14 5 36 -8 77 -35 71 -46 -3 -4 5 -13 17
-20 21 -11 22 -11 10 4 -11 13 -6 12 27 -3 22 -11 43 -26 47 -32 5 -7 -4 -5
-20 5 -15 10 -30 17 -32 14 -3 -2 11 -14 31 -26 20 -11 33 -17 30 -11 -9 15 1
12 43 -10 52 -27 102 -64 77 -56 -18 5 -17 4 3 -14 13 -10 39 -22 58 -26 19
-3 32 -9 30 -12 -10 -9 64 -53 76 -46 6 4 8 3 4 -4 -9 -15 22 -30 48 -25 14 3
17 2 9 -4 -9 -6 20 -29 94 -74 143 -85 153 -91 186 -95 16 -2 38 -11 50 -20
l22 -16 -25 7 -25 7 23 -17 c12 -9 27 -13 32 -10 6 4 10 3 9 -2 -3 -19 2 -25
14 -15 8 7 18 6 32 -5 19 -15 19 -15 -5 -9 -23 6 -23 6 -5 -5 10 -7 33 -15 50
-19 16 -4 29 -12 28 -18 -2 -7 4 -9 14 -5 11 4 14 3 9 -6 -5 -8 -3 -11 5 -10
8 2 25 -1 38 -5 19 -6 21 -10 10 -18 -10 -7 -8 -8 7 -3 13 3 31 -2 47 -15 14
-11 30 -20 35 -20 6 0 14 -5 18 -12 5 -8 2 -9 -10 -5 -11 4 -15 3 -11 -4 4 -6
14 -8 22 -4 9 3 27 -2 40 -11 14 -8 27 -13 30 -11 2 3 -2 34 -11 69 -8 34 -17
79 -19 98 -2 19 -16 82 -30 140 -42 167 -49 198 -50 235 0 18 -4 32 -8 29 -10
-6 -31 124 -24 149 5 17 4 19 -4 7 -9 -12 -11 -9 -12 15 -1 17 -1 42 0 57 2
27 -22 145 -94 458 -20 85 -33 165 -30 177 3 12 58 68 122 125 148 130 183
160 197 173 6 6 60 53 121 105 60 52 115 100 121 105 6 6 42 37 79 70 38 33
73 65 79 70 10 9 113 99 195 170 60 52 134 118 186 167 40 38 46 48 30 48 -11
0 -117 9 -235 20 -301 29 -741 68 -895 80 -226 18 -252 19 -225 10 25 -8 24
-8 -5 -8 -16 0 -39 3 -50 8 l-20 9 20 2 c18 1 -62 18 -106 22 -9 1 -15 7 -12
13 2 7 0 15 -6 19 -6 3 -11 0 -11 -7 -1 -7 -7 -2 -15 12 -8 14 -12 34 -9 45 4
14 3 16 -4 7 -7 -11 -10 -10 -16 3 -8 23 -8 27 4 20 13 -8 13 -2 -2 30 -8 19
-14 22 -21 13 -6 -9 -7 -5 -3 12 3 14 1 32 -4 40 -9 13 -10 13 -10 0 0 -8 -7
-2 -15 14 -9 16 -13 31 -10 34 3 3 5 0 5 -6 0 -7 4 -12 10 -12 5 0 -2 26 -16
58 -67 153 -68 154 -75 135 -7 -15 -8 -16 -8 -1 -1 9 -4 25 -7 35 -5 15 -4 16
6 3 13 -17 13 -17 -19 68 -13 34 -28 62 -32 62 -5 0 -9 6 -9 14 0 30 -42 114
-55 110 -8 -3 -16 4 -20 18 -4 13 -18 48 -33 78 -14 30 -27 60 -28 65 -1 6 -6
19 -10 29 -6 15 -4 17 6 11 10 -6 12 -4 7 9 -4 10 -7 20 -7 22 0 3 -4 2 -10
-1 -5 -3 -10 3 -10 15 0 13 -4 19 -12 14 -8 -5 -9 2 -5 24 4 17 2 34 -3 37 -6
3 -7 -2 -4 -12 4 -12 0 -10 -15 7 -11 14 -21 30 -21 35 0 16 -112 265 -119
265 -4 0 -15 -23 -25 -52z m352 -663 c-3 -3 -9 2 -12 12 -6 14 -5 15 5 6 7 -7
10 -15 7 -18z m-965 -652 c-7 -2 -19 -2 -25 0 -7 3 -2 5 12 5 14 0 19 -2 13
-5z m1504 -19 c-3 -3 -12 -4 -19 -1 -8 3 -5 6 6 6 11 1 17 -2 13 -5z m-2304
-51 c-7 -2 -21 -2 -30 0 -10 3 -4 5 12 5 17 0 24 -2 18 -5z m-190 -20 c-7 -2
-21 -2 -30 0 -10 3 -4 5 12 5 17 0 24 -2 18 -5z m637 -1170 c-11 -17 -11 -17
-6 0 3 10 7 26 7 35 1 15 2 15 6 0 2 -10 -1 -25 -7 -35z m790 -703 c-8 -5 -19
-10 -25 -10 -5 0 -3 5 5 10 8 5 20 10 25 10 6 0 3 -5 -5 -10z"/>
<path d="M6710 5785 c0 -5 5 -17 10 -25 5 -8 10 -10 10 -5 0 6 -5 17 -10 25
-5 8 -10 11 -10 5z"/>
<path d="M6395 3110 c-3 -6 1 -7 9 -4 18 7 21 14 7 14 -6 0 -13 -4 -16 -10z"/>
<path d="M6475 3110 c3 -5 8 -10 11 -10 2 0 4 5 4 10 0 6 -5 10 -11 10 -5 0
-7 -4 -4 -10z"/>
<path d="M7596 3065 c8 -37 14 -45 14 -19 0 10 -5 26 -10 34 -8 11 -9 7 -4
-15z"/>
<path d="M6296 3055 c-11 -8 -15 -15 -10 -15 6 0 19 7 30 15 10 8 15 14 9 14
-5 0 -19 -6 -29 -14z"/>
<path d="M6675 2998 c11 -6 27 -16 35 -22 9 -6 5 -1 -8 12 -13 12 -28 22 -35
22 -7 0 -3 -6 8 -12z"/>
<path d="M7692 2650 c0 -14 2 -19 5 -12 2 6 2 18 0 25 -3 6 -5 1 -5 -13z"/>
<path d="M6693 2062 c-29 -14 -53 -30 -53 -35 0 -4 5 -5 10 -2 6 4 36 -5 67
-19 31 -15 58 -25 59 -23 2 2 10 25 18 50 16 52 8 59 -37 35 -20 -10 -21 -10
-8 5 18 23 5 20 -56 -11z"/>
<path d="M6795 1685 c4 -11 8 -24 9 -30 1 -5 7 -20 14 -32 18 -32 15 -43 -12
-43 -28 0 -85 -37 -100 -65 -6 -11 -15 -23 -20 -26 -5 -4 50 -8 123 -8 110 -2
132 1 137 14 3 8 10 12 15 9 18 -11 8 8 -18 36 -15 16 -31 26 -36 23 -6 -3 -7
-2 -4 4 4 5 -8 23 -26 39 -17 16 -24 20 -14 8 25 -31 21 -41 -7 -15 -14 13
-23 28 -21 35 3 6 -7 25 -21 41 -19 21 -24 24 -19 10z"/>
</g>
</svg>
